<?xml version="1.0"?>
<!-- Created by MetaPost 1.9991 on 2018.01.24:1640 -->
<svg version="1.1" xmlns="http://www.w3.org/2000/svg" xmlns:xlink="http://www.w3.org/1999/xlink" width="65.445358" height="34.526352" viewBox="0 0 65.445358 34.526352">
<!-- Original BoundingBox: -4.389099 -4.303909 61.056259 30.222443 -->
  <defs>
    <g transform="scale(0.009963,0.009963)" id="GLYPHcmsy10_15">
      <path style="fill-rule: evenodd;" d="M444.000000 -250.000000C444.000000 -357.000000,355.000000 -444.000000,250.000000 -444.000000C142.000000 -444.000000,55.000000 -355.000000,55.000000 -250.000000C55.000000 -144.000000,142.000000 -56.000000,250.000000 -56.000000C355.000000 -56.000000,444.000000 -143.000000,444.000000 -250.000000"></path>
    </g>
    <g transform="scale(0.017215,0.017215)" id="GLYPHcmss17_65">
      <path style="fill-rule: evenodd;" d="M355.000000 -694.000000L269.000000 -694.000000L26.000000 -0.000000L102.000000 -0.000000L172.000000 -202.000000L440.000000 -202.000000L511.000000 -0.000000L598.000000 -0.000000M421.000000 -258.000000L191.000000 -258.000000C239.000000 -398.000000,299.000000 -572.000000,306.000000 -617.000000L307.000000 -617.000000C314.000000 -576.000000,334.000000 -516.000000,351.000000 -465.000000"></path>
    </g>
    <g transform="scale(0.017215,0.017215)" id="GLYPHcmss17_67">
      <path style="fill-rule: evenodd;" d="M547.000000 -115.000000C480.000000 -70.000000,449.000000 -57.000000,368.000000 -57.000000C228.000000 -57.000000,146.000000 -208.000000,146.000000 -346.000000C146.000000 -493.000000,230.000000 -638.000000,372.000000 -638.000000C436.000000 -638.000000,478.000000 -620.000000,529.000000 -588.000000L543.000000 -667.000000C495.000000 -691.000000,434.000000 -702.000000,373.000000 -702.000000C181.000000 -702.000000,62.000000 -525.000000,62.000000 -346.000000C62.000000 -149.000000,203.000000 7.000000,363.000000 7.000000C449.000000 7.000000,479.000000 -0.000000,553.000000 -47.000000"></path>
    </g>
    <g transform="scale(0.017215,0.017215)" id="GLYPHcmss17_80">
      <path style="fill-rule: evenodd;" d="M329.000000 -289.000000C449.000000 -289.000000,547.000000 -382.000000,547.000000 -492.000000C547.000000 -600.000000,453.000000 -694.000000,323.000000 -694.000000L89.000000 -694.000000L89.000000 -0.000000L173.000000 -0.000000L173.000000 -289.000000M301.000000 -638.000000C417.000000 -638.000000,468.000000 -565.000000,468.000000 -492.000000C468.000000 -424.000000,421.000000 -347.000000,301.000000 -347.000000L171.000000 -347.000000L171.000000 -638.000000"></path>
    </g>
    <g transform="scale(0.017215,0.017215)" id="GLYPHcmss17_83">
      <path style="fill-rule: evenodd;" d="M437.000000 -661.000000C393.000000 -687.000000,345.000000 -710.000000,264.000000 -710.000000C135.000000 -710.000000,52.000000 -615.000000,52.000000 -518.000000C52.000000 -480.000000,63.000000 -437.000000,102.000000 -393.000000C141.000000 -349.000000,185.000000 -337.000000,241.000000 -323.000000C264.000000 -317.000000,303.000000 -306.000000,310.000000 -303.000000C366.000000 -281.000000,393.000000 -230.000000,393.000000 -182.000000C393.000000 -119.000000,344.000000 -52.000000,257.000000 -52.000000C227.000000 -52.000000,139.000000 -57.000000,56.000000 -133.000000L42.000000 -54.000000C124.000000 6.000000,213.000000 16.000000,258.000000 16.000000C381.000000 16.000000,469.000000 -81.000000,469.000000 -191.000000C469.000000 -231.000000,457.000000 -282.000000,415.000000 -329.000000C374.000000 -374.000000,338.000000 -384.000000,256.000000 -406.000000C209.000000 -418.000000,179.000000 -426.000000,154.000000 -457.000000C137.000000 -479.000000,128.000000 -500.000000,128.000000 -527.000000C128.000000 -583.000000,176.000000 -644.000000,264.000000 -644.000000C308.000000 -644.000000,365.000000 -635.000000,423.000000 -581.000000"></path>
    </g>
  </defs>
  <g transform="matrix(1.199997,-0.000000,-0.000000,1.199997,1.011200 32.656708)" style="fill: rgb(0.000000%,0.000000%,0.000000%);">
    <use xlink:href="#GLYPHcmsy10_15"></use>
  </g>
  <g transform="matrix(1.199997,-0.000000,-0.000000,1.199997,1.011200 6.716492)" style="fill: rgb(0.000000%,0.000000%,0.000000%);">
    <use xlink:href="#GLYPHcmsy10_15"></use>
  </g>
  <path d="M4.000092 24.343628C4.667618 22.105804,6.253876 20.257187,8.363190 19.257355L8.363113 18.659592C7.411346 19.110306,6.553085 19.715561,5.818237 20.442551L5.220383 20.442612L5.220398 21.093384C4.740494 21.668762,4.329910 22.303192,4.000046 22.984146L4.000107 22.984146C3.670197 22.303223,3.259613 21.668823,2.779678 21.093506L2.779663 20.442719L2.181839 20.442734C1.440277 19.709198,0.573044 19.099594,-0.389099 18.647720L-0.389099 19.245529C1.733185 20.242279,3.329758 22.096710,4.000092 24.343628Z" style="stroke:rgb(0.000000%,0.000000%,0.000000%); stroke-width: 0.000000;fill: rgb(0.000000%,0.000000%,0.000000%);"></path>
  <path d="M5.519257 9.716492L5.519257 15.079468L5.519257 20.442413" style="stroke:rgb(0.000000%,0.000000%,0.000000%); stroke-width: 0.597763;stroke-linecap: round;stroke-linejoin: round;stroke-miterlimit: 10.000000;fill: none;"></path>
  <path d="M2.480743 9.716492L2.480743 15.079468L2.480743 20.442413" style="stroke:rgb(0.000000%,0.000000%,0.000000%); stroke-width: 0.597763;stroke-linecap: round;stroke-linejoin: round;stroke-miterlimit: 10.000000;fill: none;"></path>
  <g transform="matrix(1.199997,-0.000000,-0.000000,1.199997,57.704102 32.656708)" style="fill: rgb(0.000000%,0.000000%,0.000000%);">
    <use xlink:href="#GLYPHcmsy10_15"></use>
  </g>
  <g transform="matrix(1.199997,-0.000000,-0.000000,1.199997,57.704102 6.716492)" style="fill: rgb(0.000000%,0.000000%,0.000000%);">
    <use xlink:href="#GLYPHcmsy10_15"></use>
  </g>
  <path d="M60.692780 24.343628C61.360306 22.105804,62.946701 20.257187,65.056259 19.257355L65.056137 18.659592C64.104263 19.110306,63.245911 19.715561,62.511002 20.442551L61.913071 20.442612L61.913101 21.093384C61.433151 21.668762,61.022552 22.303192,60.692673 22.984146L60.692734 22.984146C60.362762 22.303223,59.952072 21.668823,59.472061 21.093506L59.472031 20.442719L58.874100 20.442703C58.139069 19.715790,57.280640 19.110596,56.328705 18.659988L56.328781 19.257797C58.438431 20.257446,60.024994 22.105896,60.692780 24.343628Z" style="stroke:rgb(0.000000%,0.000000%,0.000000%); stroke-width: 0.000000;fill: rgb(0.000000%,0.000000%,0.000000%);"></path>
  <path d="M62.212158 9.716492L62.212158 15.079468L62.212158 20.442413" style="stroke:rgb(0.000000%,0.000000%,0.000000%); stroke-width: 0.597763;stroke-linecap: round;stroke-linejoin: round;stroke-miterlimit: 10.000000;fill: none;"></path>
  <path d="M59.173645 9.716492L59.173645 15.079468L59.173645 20.442413" style="stroke:rgb(0.000000%,0.000000%,0.000000%); stroke-width: 0.597763;stroke-linecap: round;stroke-linejoin: round;stroke-miterlimit: 10.000000;fill: none;"></path>
  <path d="M54.702011 4.060913C52.956543 4.858185,51.722275 6.469849,51.408112 8.362030L50.810287 8.362152C51.074326 6.771713,51.914078 5.353363,53.143387 4.359619L53.143387 4.359650L53.143402 3.761932L53.143417 3.761993C51.920288 2.771896,51.082809 1.360718,50.814301 -0.222397L51.412125 -0.222443C51.732727 1.662262,52.963913 3.266052,54.702042 4.060974Z" style="stroke:rgb(0.000000%,0.000000%,0.000000%); stroke-width: 0.000000;fill: rgb(0.000000%,0.000000%,0.000000%);"></path>
  <path d="M9.988800 4.059784L53.145050 4.059784" style="stroke:rgb(0.000000%,0.000000%,0.000000%); stroke-width: 0.597763;stroke-linecap: round;stroke-linejoin: round;stroke-miterlimit: 10.000000;fill: none;"></path>
  <path d="M9.987793 30.000275C11.727356 29.205750,12.961548 27.602890,13.285721 25.719345L13.883514 25.719360C13.612000 27.301498,12.771866 28.711838,11.546906 29.701401L11.546921 29.701355L11.546921 30.299057L11.546921 30.299011C12.778091 31.293289,13.620529 32.712494,13.887604 34.303909L13.289810 34.303909C12.972061 32.410522,11.734756 30.797882,9.987793 30.000214Z" style="stroke:rgb(0.000000%,0.000000%,0.000000%); stroke-width: 0.000000;fill: rgb(0.000000%,0.000000%,0.000000%);"></path>
  <path d="M54.704102 30.000000L11.547852 30.000000" style="stroke:rgb(0.000000%,0.000000%,0.000000%); stroke-width: 0.597763;stroke-linecap: round;stroke-linejoin: round;stroke-miterlimit: 10.000000;fill: none;"></path>
  <g transform="translate(12.141144 23.007492)" style="fill: rgb(0.000000%,27.450562%,68.235779%);">
    <use xlink:href="#GLYPHcmss17_67"></use>
    <use xlink:href="#GLYPHcmss17_80" x="10.382024"></use>
    <use xlink:href="#GLYPHcmss17_83" x="20.743202"></use>
    <use xlink:href="#GLYPHcmss17_65" x="29.771055"></use>
  </g>
</svg>
