<?xml version="1.0" encoding="UTF-8"?>
<svg xmlns="http://www.w3.org/2000/svg" xmlns:xlink="http://www.w3.org/1999/xlink" width="55pt" height="14.94pt" viewBox="0 0 55 14.94" version="1.1">
<g id="surface0">
<path style="stroke: none; fill-rule: nonzero; fill: rgb(0%,31.76318%,72.852674%); opacity: 1;" d="M 0 14.940002 L 2.362503 -0.003799 L 5.428513 -0.003799 L 8.839066 9.226334 L 12.198395 -0.003799 L 15.264496 -0.003799 L 17.899597 14.940002 L 14.822998 14.940002 L 13.195297 5.709915 L 9.835938 14.940002 L 7.946091 14.940002 L 4.535934 5.709915 L 3.076553 14.940002 "/>
<path style="stroke: none; fill-rule: nonzero; fill: rgb(0%,31.76318%,72.852674%); opacity: 1;" d="M 18.899597 14.940002 L 21.899597 14.940002 L 21.899597 0.039993 L 18.899597 0.039993 L 18.899597 14.940002 Z M 18.899597 14.940002 "/>
<path style="stroke: none; fill-rule: nonzero; fill: rgb(0%,31.76318%,72.852674%); opacity: 1;" d="M 26.899597 14.940002 L 26.899597 2.743103 L 22.899597 2.743103 L 22.899597 -0.003799 L 32.899597 -0.003799 L 32.899597 2.743103 L 29.899597 2.743103 L 29.899597 14.940002 "/>
<path style="stroke: none; fill-rule: nonzero; fill: rgb(0%,31.76318%,72.852674%); opacity: 1;" d="M 33.899597 14.940002 L 33.899597 -0.003799 L 40.215607 -0.003799 C 42.789795 -0.003799 45 1.889999 45 4.391205 C 45 6.816559 42.754303 8.566956 40.215607 8.566956 L 37.899597 8.566956 L 37.899597 6.039612 L 40.215607 6.039612 C 41.177307 6.039612 42 5.327499 42 4.391205 C 42 3.4552 41.177307 2.743103 40.215607 2.743103 L 36.899597 2.743103 L 36.899597 14.940002 "/>
<path style="stroke: none; fill-rule: nonzero; fill: rgb(0%,31.76318%,72.852674%); opacity: 1;" d="M 41.863693 14.940002 L 37.899597 9.278671 L 37.899597 6.039612 L 39.455505 6.039612 L 45.6875 14.940002 "/>
<path style="stroke: none; fill-rule: nonzero; fill: rgb(0%,31.76318%,72.852674%); opacity: 1;" d="M 46 14.940002 L 46 -0.003799 L 55 -0.003799 L 55 2.743103 L 49 2.743103 L 49 6.039612 L 55 6.039612 L 55 8.566956 L 49 8.566956 L 49 11.973206 L 55 11.973206 L 55 14.940002 "/>
</g>
</svg>
